<svg width="70" height="20" viewBox="0 0 70 20" fill="none" xmlns="http://www.w3.org/2000/svg">
<path d="M55.1441 0.631732C54.7014 0.210577 54.1559 0 53.5076 0C52.8593 0 52.3138 0.210577 51.8711 0.631732C51.4283 1.05289 51.207 1.57543 51.207 2.19937C51.207 2.8233 51.4283 3.34584 51.8711 3.767C52.3138 4.18815 52.8593 4.39873 53.5076 4.39873C54.1559 4.39873 54.7014 4.18815 55.1441 3.767C55.5869 3.34584 55.8082 2.8233 55.8082 2.19937C55.8082 1.57543 55.5869 1.05289 55.1441 0.631732Z" fill="black"/>
<path d="M55.5473 5.24104H51.4442V17.3142H55.5473V5.24104Z" fill="black"/>
<path d="M27.0696 0.9359H22.9664V17.3142H27.0696V0.9359Z" fill="black"/>
<path d="M8.13519 8.82086V5.24104H7.54225C6.6884 5.24104 5.99269 5.38923 5.45508 5.6856C4.91748 5.98196 4.46684 6.42652 4.10317 7.01925L3.77112 5.24104H0V17.3142H4.10317V11.5116C4.10317 9.71777 4.93329 8.82086 6.59354 8.82086H8.13519Z" fill="black"/>
<path d="M21.552 5.24104V17.3142H17.8995L17.5912 15.9337C17.1484 16.4329 16.6504 16.815 16.0969 17.0802C15.5593 17.3298 14.8952 17.4545 14.1047 17.4545C12.6974 17.4545 11.5352 17.0256 10.6181 16.1677C9.70105 15.2942 9.24251 13.8045 9.24251 11.6988V5.24104H13.3457V11.1372C13.3457 12.1667 13.4959 12.931 13.7963 13.4302C14.0967 13.9293 14.5948 14.1789 15.2905 14.1789C15.9704 14.1789 16.5001 13.9215 16.8796 13.4068C17.2591 12.8764 17.4489 12.1199 17.4489 11.1372V5.24104H21.552Z" fill="black"/>
<path fill-rule="evenodd" clip-rule="evenodd" d="M28.9917 8.02535C28.4699 8.96125 28.209 10.0609 28.209 11.3244C28.209 12.5723 28.4778 13.6563 29.0154 14.5767C29.5688 15.497 30.3673 16.2067 31.4109 16.7058C32.4545 17.205 33.6957 17.4545 35.1346 17.4545C36.2414 17.4545 37.2138 17.2674 38.0518 16.893C38.9057 16.503 39.5777 15.9883 40.0678 15.3488C40.5738 14.6936 40.8822 13.9761 40.9928 13.1962H36.9608C36.7236 14.0853 36.02 14.5299 34.85 14.5299C33.4743 14.5299 32.6837 13.7811 32.4782 12.2837V12.2369H41.0166C41.0956 11.8625 41.1351 11.4258 41.1351 10.9266C41.1351 9.77236 40.8584 8.75847 40.305 7.88496C39.7516 6.99586 38.9768 6.30953 37.9807 5.82598C37.0004 5.34243 35.8619 5.10066 34.5653 5.10066C33.3004 5.10066 32.1857 5.35803 31.2211 5.87278C30.2724 6.37192 29.5293 7.08945 28.9917 8.02535ZM36.2967 8.4465C36.7078 8.74287 36.9687 9.17962 37.0794 9.75676H32.5256C32.6205 9.17962 32.8577 8.74287 33.2371 8.4465C33.6324 8.13454 34.1463 7.97855 34.7788 7.97855C35.3954 7.97855 35.9014 8.13454 36.2967 8.4465Z" fill="black"/>
<path d="M41.4121 8.58689H43.3332V13.6875C43.3332 14.873 43.6495 15.7777 44.282 16.4017C44.9302 17.01 45.8394 17.3142 47.0095 17.3142H50.0691V13.9683H48.5512C48.1559 13.9683 47.8712 13.8825 47.6973 13.7109C47.5234 13.5394 47.4364 13.2586 47.4364 12.8686V8.58689H50.0691V5.24104H47.4364V1.8484H43.3332V5.24104H41.4121V8.58689Z" fill="black"/>
<path d="M56.9632 0.9359H61.0663V9.66317L65.1458 5.24104H69.6522L65.4541 9.85035L69.8182 17.3142H65.1458L62.5606 12.8686L61.0663 14.5065V17.3142H56.9632V0.9359Z" fill="black"/>
</svg>
