<svg width="139" height="25" viewBox="0 0 139 25" fill="none" xmlns="http://www.w3.org/2000/svg">
<path d="M116.573 0C117.464 0 118.214 0.289544 118.823 0.868631C119.432 1.44772 119.736 2.16622 119.736 3.02413C119.736 3.88204 119.432 4.60054 118.823 5.17962C118.214 5.75871 117.464 6.04826 116.573 6.04826C115.682 6.04826 114.931 5.75871 114.323 5.17962C113.714 4.60054 113.41 3.88204 113.41 3.02413C113.41 2.16622 113.714 1.44772 114.323 0.868631C114.931 0.289544 115.682 0 116.573 0Z" fill="black"/>
<path d="M113.736 7.20643H119.378V23.807H113.736V7.20643Z" fill="black"/>
<path d="M80.2206 1.28686H74.5788V23.807H80.2206V1.28686Z" fill="black"/>
<path d="M54.1859 7.20643V12.1287H52.0661C49.7833 12.1287 48.6419 13.3619 48.6419 15.8284V23.807H43V7.20643H48.1853L48.6419 9.65147C49.1419 8.83646 49.7615 8.2252 50.5007 7.81769C51.2399 7.41019 52.1966 7.20643 53.3706 7.20643H54.1859Z" fill="black"/>
<path d="M72.634 7.20643V23.807H67.6118L67.1878 21.9088C66.5791 22.5952 65.8942 23.1206 65.1333 23.4853C64.3941 23.8284 63.481 24 62.3939 24C60.4589 24 58.8609 23.4102 57.5999 22.2306C56.3389 21.0295 55.7085 18.9812 55.7085 16.0858V7.20643H61.3503V15.3137C61.3503 16.7292 61.5569 17.7802 61.9699 18.4665C62.383 19.1528 63.0679 19.496 64.0245 19.496C64.9594 19.496 65.6877 19.1421 66.2095 18.4343C66.7313 17.7051 66.9922 16.6649 66.9922 15.3137V7.20643H72.634Z" fill="black"/>
<path fill-rule="evenodd" clip-rule="evenodd" d="M81.7873 15.571C81.7873 13.8338 82.1461 12.3217 82.8635 11.0349C83.6027 9.74799 84.6246 8.76139 85.9291 8.07507C87.2553 7.36729 88.788 7.0134 90.5273 7.0134C92.3101 7.0134 93.8755 7.34584 95.2234 8.01072C96.5931 8.6756 97.6585 9.6193 98.4194 10.8418C99.1804 12.0429 99.5608 13.437 99.5608 15.0241C99.5608 15.7105 99.5065 16.311 99.3978 16.8257H87.6575V16.8901C87.9401 18.9491 89.0272 19.9786 90.9187 19.9786C92.5275 19.9786 93.495 19.3673 93.8211 18.1448H99.3652C99.213 19.2172 98.789 20.2038 98.0933 21.1046C97.4193 21.9839 96.4953 22.6917 95.3213 23.2279C94.169 23.7426 92.8319 24 91.31 24C89.3316 24 87.6249 23.6568 86.1899 22.9705C84.755 22.2842 83.6571 21.3083 82.8961 20.0429C82.1569 18.7775 81.7873 17.2869 81.7873 15.571ZM93.9842 13.4155C93.832 12.622 93.4733 12.0214 92.908 11.6139C92.3645 11.185 91.6687 10.9705 90.8208 10.9705C89.9512 10.9705 89.2446 11.185 88.7011 11.6139C88.1793 12.0214 87.8532 12.622 87.7227 13.4155H93.9842Z" fill="black"/>
<path d="M99.9417 11.807H102.583V18.8204C102.583 20.4504 103.018 21.6944 103.888 22.5523C104.779 23.3887 106.029 23.807 107.638 23.807H111.845V19.2064H109.758C109.214 19.2064 108.823 19.0885 108.584 18.8525C108.345 18.6166 108.225 18.2306 108.225 17.6944V11.807H111.845V7.20643H108.225V2.54155H102.583V7.20643H99.9417V11.807Z" fill="black"/>
<path d="M126.966 1.28686H121.324V23.807H126.966V19.9464L129.021 17.6944L132.575 23.807H139L132.999 13.5442L138.772 7.20643H132.575L126.966 13.2869V1.28686Z" fill="black"/>
<path fill-rule="evenodd" clip-rule="evenodd" d="M31.7916 8.44816L31.295 8.50613C29.6052 8.7034 28.2233 9.02778 27.0913 9.42852C27.1905 9.45108 27.2896 9.47563 27.3887 9.50219C31.5911 10.629 34.0846 14.9512 32.9587 19.1558C31.8328 23.3606 27.5135 25.8563 23.3109 24.7295C19.6687 23.7529 17.3111 20.3768 17.4791 16.7571C17.4911 15.901 17.5662 14.6508 17.9693 13.2632H15.767C16.2224 14.831 16.2593 16.2242 16.2593 17.0704V17.5704H16.2455C16.0554 20.8718 13.786 23.8265 10.4181 24.7295C6.21554 25.8563 1.89624 23.3606 0.770339 19.1558C-0.355525 14.9512 2.13791 10.629 6.34038 9.50219C6.44091 9.47523 6.54152 9.45035 6.64217 9.42752C5.51073 9.02724 4.12971 8.70324 2.44129 8.50613L1.94474 8.44816L2.41142 4.44531L2.90812 4.5033C8.20037 5.12113 11.5441 6.91741 13.5715 9.23324H20.1648C22.1922 6.91741 25.5359 5.12113 30.8282 4.5033L31.3249 4.44531L31.7916 8.44816ZM20.9996 17.1667C21.0003 17.2242 21.0021 17.2816 21.005 17.3387C21.0089 17.4163 21.015 17.4936 21.0231 17.5704C21.206 19.3104 22.4344 20.8399 24.2241 21.3198C22.2647 20.7944 20.9779 19.0109 20.9995 17.0705C20.9992 17.1026 20.9993 17.1347 20.9996 17.1667ZM21.505 17.3257C21.5928 18.9448 22.7046 20.3947 24.3536 20.8369C26.4068 21.3874 28.5176 20.1682 29.068 18.113C29.6183 16.0576 28.3993 13.9454 26.346 13.3948C24.2928 12.8443 22.182 14.0635 21.6316 16.1187C21.562 16.3788 21.5207 16.6392 21.5058 16.8969C21.5052 16.9561 21.505 17.014 21.505 17.0704V17.3257ZM30.886 5C27.9118 5.34722 25.5872 6.06951 23.7817 7.03524C25.4856 6.12385 27.6518 5.42925 30.39 5.06211C30.5534 5.04021 30.7186 5.01955 30.886 5ZM25.1597 9.73411C25.5033 9.72539 25.8503 9.74082 26.1987 9.78165C26.5516 9.82299 26.9058 9.89039 27.2592 9.98513C26.557 9.79685 25.8513 9.71656 25.1597 9.73411ZM15.079 12.7633C15.1397 12.9314 15.1949 13.0982 15.2453 13.2632C15.6366 14.545 15.732 15.7184 15.7535 16.5704C15.7559 16.6661 15.7574 16.7577 15.7582 16.845C15.759 16.9237 15.7593 16.999 15.7593 17.0704C15.7593 16.1241 15.7115 14.5167 15.079 12.7633ZM15.7582 17.1705C15.7585 17.1372 15.7585 17.1039 15.7582 17.0705C15.7734 19.2936 14.7765 21.3926 13.1005 22.7907C14.7514 21.4136 15.7433 19.3565 15.7582 17.1705ZM6.46975 9.9852C6.82501 9.88995 7.18128 9.82226 7.53605 9.78097C7.885 9.74036 8.23261 9.72522 8.57671 9.73429C7.88269 9.71597 7.17454 9.79623 6.46975 9.9852ZM13.3412 9.73331C11.434 7.4547 8.18826 5.62322 2.85013 5.00001C3.01756 5.01956 3.18295 5.04021 3.34628 5.06211C8.39062 5.73845 11.4938 7.52615 13.3412 9.73331ZM9.37546 20.8369C11.4288 20.2863 12.6478 18.1741 12.0974 16.1187C11.5471 14.0635 9.43624 12.8443 7.38305 13.3948C5.32974 13.9454 4.11072 16.0576 4.66109 18.113C5.21142 20.1682 7.32228 21.3874 9.37546 20.8369Z" fill="black"/>
</svg>
