<svg width="34" height="20" viewBox="0 0 34 20" fill="none" xmlns="http://www.w3.org/2000/svg">
<path fill-rule="evenodd" clip-rule="evenodd" d="M5.51743 5.2178C4.30639 4.69616 2.80347 4.28467 0.932784 4.06689L1.40826 0C6.50891 0.593802 9.79052 2.47787 11.852 4.74686H20.6052C22.6667 2.47793 25.9483 0.593939 31.0488 0.000150721L31.5243 4.06704C29.6522 4.28498 28.1485 4.69691 26.937 5.21909C30.9128 6.32878 33.2621 10.4285 32.1908 14.4179C31.1123 18.4343 26.9752 20.8178 22.9502 19.7416C18.9252 18.6654 16.5366 14.537 17.6151 10.5206C17.6883 10.248 17.7756 9.98292 17.876 9.72592C17.955 9.44194 18.0478 9.146 18.1568 8.84133H14.3003C14.4178 9.16987 14.5165 9.48826 14.5994 9.79245C14.6891 10.0286 14.7678 10.2715 14.8347 10.5206C15.9132 14.537 13.5246 18.6654 9.49959 19.7416C5.47462 20.8178 1.33745 18.4343 0.25896 14.4179C-0.812667 10.427 1.53882 6.3256 5.51743 5.2178ZM10.8713 11.5803C11.3633 13.4125 10.2737 15.2957 8.43761 15.7866C6.60155 16.2776 4.71432 15.1903 4.22235 13.3581C3.73038 11.526 4.81998 9.64277 6.65603 9.15185C8.49208 8.66093 10.3793 9.7482 10.8713 11.5803ZM24.0122 15.7866C22.1761 15.2957 21.0865 13.4125 21.5785 11.5803C22.0705 9.7482 23.9577 8.66093 25.7938 9.15185C27.6298 9.64277 28.7194 11.526 28.2274 13.3581C27.7355 15.1903 25.8482 16.2776 24.0122 15.7866Z" fill="black"/>
</svg>
